<svg xmlns="http://www.w3.org/2000/svg" version="1.1" xmlns:xlink="http://www.w3.org/1999/xlink" xmlns:svgjs="http://svgjs.com/svgjs" height="239.5149124145508" width="246.9017272949219"><defs id="SvgjsDefs1039"></defs><g id="SvgjsG1040" rel="mainfill" name="main_text" xmlns:name="main_text" transform="translate(33.83086471557618,-59.32754287719726)" fill="#ffffff"><path d="M19.87 118.17L20.88 118.17Q23.42 118.17 23.84 121.89L23.84 236.03Q23.42 240 20.38 240Q16.91 239.49 16.91 236.79L16.91 121.63Q17.42 118.17 19.87 118.17ZM85.39 118.51L85.65 118.51Q100.61 118.51 110.00 129.84Q119.21 118.51 134.26 118.51L134.51 118.51Q151.76 118.51 160.13 132.54Q162.33 136.51 162.33 143.87L162.33 235.94Q161.91 240 159.12 240L158.27 240Q156.07 240 155.31 237.04L155.31 142.26Q155.31 130.43 141.02 126.37Q139.08 125.52 135.61 125.52L133.16 125.52Q120.82 125.52 114.56 136.09Q113.46 138.54 113.46 140.66L113.46 236.20Q113.12 240 110.25 240L110.00 240Q106.44 239.58 106.44 236.79L106.44 141.16Q106.44 129.75 89.96 125.78Q88.60 125.52 86.74 125.52L84.29 125.52Q72.29 125.52 65.69 136.09Q64.59 139.14 64.59 141.42L64.59 236.45Q64.09 240 61.63 240L60.79 240Q57.58 240 57.58 235.43L57.58 143.36Q57.58 125.44 76.77 119.61Q81.08 118.51 85.39 118.51Z" fill="#ffffff" style="fill: rgb(255, 255, 255);"></path></g><g id="SvgjsG1041" transform="translate(-0.0000019669532775878906,0) scale(2.2)" rel="mainfill" name="outline_container" xmlns:name="outlineContainer_mainfill" fill="#ffffff"><g fill="#ffffff"><path d="M14 101.9v.6h4.5c2.6 0 5.2-.1 7.7.1s5.3-.1 7.8.1c4.8-.1 9.5.2 14.4 0H55l15.5-.6 10.1-.4c4-.1 7.6-.7 7.5-1.3s-.8-.4-3-.5H73.2l-13.1.2H45.7c-3.8 0-7.7.1-11.4-.1h-18v-1.3-.8h3.1c2.5.2 5.3-.1 7.8.1 4.8-.1 9.5.2 14.4 0h6.6l15.5-.6 10.1-.4c4-.1 7.6-.7 7.5-1.3s-.8-.4-3-.5H66.5l-13.1.2H39c-3.8 0-7.7.1-11.4-.1H16.3v-7.7V86q0-8.1-.1-16.2c0-4 .1-8-.1-12s-.1-6.4-.1-9.6v-2.7V36c0-4.9.1-9.7.1-14.7v-7.7h.2c4.5 0 9.1-.2 13.7-.1h17.6l4.5-.2c2.5 0 5.1-.1 7.7 0h3.3c2.3.2 4.8.1 7.2.2H75c3.4 0 6.9-.1 10.3.1h10.3c.1 2.6 0 5.2.1 7.7a18.3 18.3 0 0 1-.1 2.7 13.8 13.8 0 0 0-.1 2.7c.2 2.4 0 4.8 0 7.2v1.3c.2 2.7.4 5.6.8 7.5s.2 1 .4.8 1-2.8 1.3-6.3c.1-1.2.1-2.5.2-3.7.4-6.2.2-12.5 0-18.8v-4.1h-5.3l-7.7.2H73a51.6 51.6 0 0 0-6-.1h-5.7l-9.5.3h-2.3l-8.2.2h-1.9a62.3 62.3 0 0 1-9.1-.1l-4.5-.2h-9.7V7.5H30c4.5 0 9.1-.2 13.7-.1h17.7l4.5-.4c2.5 0 5.1-.1 7.7 0h3.3c2.3.2 4.8.1 7.2.2h4.7c3.4 0 6.9-.1 10.3.1h3.6v3.1a18.3 18.3 0 0 1-.1 2.7 13.8 13.8 0 0 0-.1 2.7c.2 2.4 0 4.8 0 7.2v1.3c.2 2.7.4 5.6.8 7.5s.2 1 .4.8 1-2.8 1.3-6.3c.1-1.2.1-2.5.2-3.7.3-5.1.2-10.2.1-15.3h4c.1 2.6 0 5.2.1 7.7a18.3 18.3 0 0 1-.1 2.7 13.8 13.8 0 0 0-.1 2.7c.2 2.4 0 4.8 0 7.2v1.3c.2 2.7.4 5.6.8 7.5s.2 1 .4.8 1-2.8 1.3-6.3c.1-1.2.1-2.5.2-3.7.4-6.2.2-12.5 0-18.8V4.5h-6.6V0h-5.4l-7.7.4H80.1a51 51 0 0 0-6-.1h-5.8l-9.5.3h-2.3l-8.2.2h-1.9a61.3 61.3 0 0 1-9.1 0L32.8.6H19.5L9.6.8H7.1v.7a32.9 32.9 0 0 1-.1 4c.1 1.9.2 3.2.2 4.4v1.2l-4.6.2H.1v.7a33 33 0 0 1-.1 4c.1 1.9.2 3.2.2 4.4.1 5.2 0 10.6.2 15.8v1.3c0 2.7.1 5.5 0 8.2V55.6c-.2 2.7-.2 5.6-.2 8.3C.1 69.2.1 74.5.1 79.7c0 1.3-.1 2.7 0 3.9s.1 4.9.1 7.3c.1 4.3 0 8.5 0 12.8V108.6h4.5c2.6 0 5.2-.1 7.7.1s5.3-.1 7.8.1c4.8-.1 9.5.2 14.4 0h6.6l15.5-.6 10.1-.4c4-.1 7.6-.7 7.5-1.3s-.8-.4-3-.5H59.5l-13.1.2H32c-3.8 0-7.7.1-11.4-.1h-18v-1.3-11.4-1.6q0-8.1-.1-16.2c0-4 .1-8-.1-12s-.1-6.4-.1-9.6v-2.7q-.1-4.7-.1-9.6c0-4.9.1-9.7.1-14.7V13.4h4.9c0 4 0 8.1.1 12.1v1.3c0 2.7.1 5.5 0 8.2V44.8c-.2 2.5-.2 5.4-.3 8.1-.1 5.2-.1 10.5-.1 15.8 0 1.3-.1 2.7 0 3.9s.1 4.9.1 7.3c.1 4.3 0 8.5 0 12.8V98h7v3.9zM9.4 3.2h13.9c4.5 0 9.1-.2 13.7-.1h17.6l4.5-.2c2.5 0 5.1-.1 7.7 0h3.3c2.3.2 4.8.1 7.2.2H82c3.4 0 6.9-.1 10.3.1h10.3v2.1H86.8a50.8 50.8 0 0 0-6-.1H75l-9.5.3h-2.3L55 5.4h-1.9a61.7 61.7 0 0 1-9.1-.1l-4.5-.2H26.2l-9.8.3h-2.6v.7a32.9 32.9 0 0 1-.1 4v1H9.4V3.2zm.2 92.5v-1.3V83v-1.6q0-8.1-.1-16.2c0-4 .1-8-.1-12s-.1-6.4-.1-9.6v-2.7q-.1-4.7-.1-9.6c0-4.9.1-9.7.1-14.7v-3.1h4.5v1c.1 5.2 0 10.6.2 15.8v1.3c0 2.7.1 5.5 0 8.2V49.7c-.2 2.5-.2 5.4-.3 8.1-.1 5.2-.1 10.5-.1 15.8 0 1.3-.1 2.7 0 3.9s.1 4.9.1 7.3v10.8z" fill="#ffffff" style="fill: rgb(255, 255, 255);"></path><path d="M112.2 60c0-1.5-.1-3.3-.2-4.4s-.5-4.9-.7-7.2-.7-3.5-1.2-3.5c-.1 1.8-.3 3.7-.3 5.5 0 5.4 0 10.8-.2 16.1-.1 2.8 0 5.9-.2 8.6v5.3c0 3.1 0 6.2-.1 9.3s.1 5.9.3 8.6c.1 1 .2 1.8.3 2.9l-1.6-.7h-.8a30.9 30.9 0 0 0-5.6 0h-4v-1.8c0-.4.1-.9.1-1.3h2.5l2.8-.3c.3.4.7.6.9-.9s.6-4.9.7-8.1c0-.9.1-1.8.1-2.7-.1-4.8-.1-9.6.1-14.4v-1.3-4.3c.1-3.3.4-6.4.3-10 0-1.5-.1-3.3-.2-4.4s-.5-4.9-.7-7.2-.7-3.5-1.2-3.5c-.1 1.8-.3 3.7-.3 5.5 0 5.4 0 10.8-.2 16.1-.1 2.8 0 5.9-.2 8.6-.1.6 0 1.5 0 2.3v3c0 3.1 0 6.2-.1 9.3s.1 5.9.3 8.6c.1 1 .2 1.8.3 2.9l-1.6-.7h-3.4c-.1-4.7-.1-9.4.1-14v-1.3-4.3c.1-3.3.4-6.4.3-10 0-1.5-.1-3.3-.2-4.4s-.5-4.9-.7-7.2-.7-3.5-1.2-3.5c-.1 1.8-.3 3.7-.3 5.5 0 5.4 0 10.8-.2 16.1-.1 2.8 0 5.9-.2 8.6v5.3c0 3.1 0 6.2-.1 9.3h-5.7c-.4.2-1.2.4-.8.6a13.1 13.1 0 0 0 3.3.7l3.5.2c0 1.2 0 2.3.1 3.3s-.3.2-.1.2h.1c.1 1.1.1 2.2.2 3.3s.2 1.9.3 2.9l-1.6-.7h-.8a30.8 30.8 0 0 0-5.6 0h-5.6c-.4.2-1.2.4-.8.6a13.2 13.2 0 0 0 3.3.7 55.1 55.1 0 0 0 8.3.2l2.8-.3c.3.4.7.6.9-.9s.4-3.3.6-5.3l1.2.2a55.2 55.2 0 0 0 8.3.2l2.8-.3c.3.4.7.6.9-.9s.6-4.9.7-8.1c0-.9.1-1.8.1-2.7-.1-4.8-.1-9.6.1-14.4v-1.3-4.3c0-3.2.2-6.3.1-9.9z" fill="#ffffff" style="fill: rgb(255, 255, 255);"></path></g></g></svg>
